<?xml version="1.0" encoding="utf-8"?>
<!-- Generator: $$$/GeneralStr/196=Adobe Illustrator 27.6.0, SVG Export Plug-In . SVG Version: 6.00 Build 0)  -->
<svg version="1.1" id="图层_1" xmlns="http://www.w3.org/2000/svg" xmlns:xlink="http://www.w3.org/1999/xlink" x="0px" y="0px"
	 viewBox="0 0 333.6 154.3" style="enable-background:new 0 0 333.6 154.3;" xml:space="preserve">
<style type="text/css">
	.st0{fill:#FFFFFF;}
	.st1{fill:none;stroke:#FFFFFF;stroke-width:9.415;stroke-linecap:round;stroke-miterlimit:10;}
</style>
<g>
	<g>
		<path class="st0" d="M113.4,43.5c-20.9,5-41.4,16-53.4,34.2c-2.8,4.3-5.5,8.9-6.6,14c-1.1,5.2-2.1,12.8,2.8,16
			c7.2,4.2,15.2,1.9,22.5-2.2c5.5-2.9,10,5,4.6,8.2c-9.2,5.3-21.5,8.1-31.3,2.4C40.8,110,42,95.1,45.5,85c1.3-3.7,3.3-7.2,5.2-10.6
			c6.8-11.1,16.4-20.4,27.4-27.2c10.4-6.4,21.8-11.1,33.9-13C118,33.6,119.4,42.3,113.4,43.5L113.4,43.5z"/>
	</g>
	<line class="st1" x1="143.9" y1="39.1" x2="107.5" y2="115.4"/>
	<line class="st1" x1="217.1" y1="39.1" x2="217.1" y2="115.4"/>
	<line class="st1" x1="184.4" y1="115.4" x2="217.1" y2="39.1"/>
	<line class="st1" x1="180" y1="39.1" x2="184.4" y2="115.4"/>
	<line class="st1" x1="143.9" y1="115.4" x2="180" y2="39.1"/>
	<line class="st1" x1="250.4" y1="115.4" x2="284.8" y2="115.4"/>
	<line class="st1" x1="250.4" y1="39.1" x2="250.4" y2="115.4"/>
	<line class="st1" x1="251" y1="39.1" x2="285.4" y2="39.1"/>
	<line class="st1" x1="251.5" y1="76.8" x2="285.8" y2="76.8"/>
</g>
</svg>
